<?xml version="1.0" standalone="no"?>
<!DOCTYPE svg PUBLIC "-//W3C//DTD SVG 20010904//EN"
 "http://www.w3.org/TR/2001/REC-SVG-20010904/DTD/svg10.dtd">
<svg version="1.0" xmlns="http://www.w3.org/2000/svg"
 width="1330.000000pt" height="1330.000000pt" viewBox="0 0 1330.000000 1330.000000"
 preserveAspectRatio="xMidYMid meet">
<metadata>
Created by potrace 1.14, written by Peter Selinger 2001-2017
</metadata>
<g transform="translate(0.000000,1330.000000) scale(0.100000,-0.100000)"
fill="#000000" stroke="none">
<path d="M6478 10524 c-4 -5 -31 -9 -62 -9 -31 0 -56 -3 -56 -7 0 -3 -9 -4
-20 -1 -11 3 -27 0 -35 -7 -8 -7 -15 -8 -15 -3 0 6 -12 9 -27 7 -16 -2 -45 -4
-65 -5 -20 -1 -35 -5 -33 -9 2 -3 -14 -6 -36 -5 -22 1 -42 -2 -45 -7 -3 -4
-11 -5 -19 -1 -9 3 -23 -1 -32 -8 -12 -10 -15 -10 -9 -1 4 6 2 12 -3 12 -6 0
-11 -5 -11 -11 0 -5 -5 -7 -10 -4 -6 4 -16 2 -23 -3 -7 -6 -24 -9 -39 -7 -16
2 -28 -1 -28 -6 0 -6 -4 -8 -9 -5 -4 3 -22 1 -40 -4 -22 -6 -31 -5 -31 3 0 7
-5 5 -10 -5 -6 -10 -20 -15 -35 -13 -14 1 -25 -1 -25 -5 0 -4 -11 -10 -25 -12
-16 -3 -22 -1 -18 6 4 6 -3 2 -15 -8 -12 -11 -25 -16 -29 -13 -3 4 -17 0 -31
-9 -13 -9 -21 -11 -18 -5 4 6 -6 4 -21 -4 -33 -16 -60 -27 -88 -32 -10 -2 -23
-9 -27 -16 -4 -6 -8 -9 -8 -5 0 4 -21 -4 -46 -17 -26 -14 -53 -25 -60 -25 -8
0 -14 -4 -14 -8 0 -5 -15 -15 -33 -24 -49 -23 -139 -110 -161 -154 -10 -22
-22 -47 -27 -56 -5 -10 -9 -25 -9 -33 0 -9 -4 -14 -9 -11 -5 4 -8 -2 -7 -11 3
-19 -12 -53 -29 -65 -6 -5 -5 -8 3 -8 10 0 9 -4 -3 -16 -9 -9 -14 -23 -11 -30
3 -8 1 -14 -4 -14 -7 0 -15 -16 -26 -50 0 -3 -7 -21 -14 -40 -8 -19 -12 -37
-11 -39 1 -2 -1 -7 -6 -10 -11 -7 -59 -132 -55 -143 1 -5 -2 -8 -8 -8 -5 0
-10 -8 -10 -17 0 -10 -7 -27 -15 -37 -8 -11 -15 -28 -15 -38 0 -10 -4 -18 -8
-18 -5 0 -9 -6 -10 -12 -4 -44 -48 -135 -70 -147 -10 -4 -120 -8 -247 -7 -178
1 -229 4 -227 14 1 6 -2 12 -8 12 -5 0 -10 7 -10 15 0 8 -4 15 -10 15 -5 0
-10 7 -10 16 0 8 -4 13 -8 10 -5 -3 -16 4 -25 15 -10 11 -22 17 -27 14 -5 -3
-14 3 -19 14 -8 13 -17 17 -32 14 -14 -4 -20 -2 -16 4 4 6 -3 10 -16 9 -12 -1
-30 4 -39 12 -15 13 -18 13 -18 1 0 -11 -2 -11 -10 1 -5 8 -17 16 -27 17 -21
2 -57 10 -84 18 -12 4 -19 2 -19 -7 0 -10 -2 -10 -8 -1 -4 7 -29 14 -55 15
-26 2 -47 6 -47 11 0 10 -23 4 -32 -8 -5 -6 -8 -6 -8 2 0 16 -321 16 -333 -1
-6 -8 -10 -8 -14 2 -2 6 -9 10 -14 7 -9 -6 -64 -16 -89 -16 -8 -1 -22 -3 -30
-7 -8 -3 -26 -7 -40 -8 -25 -3 -65 -11 -65 -14 0 -1 -11 -3 -24 -6 -14 -2 -30
-9 -37 -15 -7 -6 -18 -8 -24 -4 -5 3 -10 1 -10 -4 0 -6 -3 -10 -7 -9 -16 5
-119 -61 -158 -101 -35 -36 -45 -41 -85 -41 -25 0 -57 -1 -72 -4 -17 -3 -28 0
-28 7 0 8 -3 7 -9 -1 -4 -8 -11 -13 -15 -13 -3 1 -7 1 -8 0 -2 0 -30 -2 -63
-4 -33 -2 -71 -7 -85 -11 -14 -3 -36 -8 -50 -9 -14 -1 -33 -6 -42 -10 -10 -4
-24 -5 -32 -2 -8 3 -17 3 -20 -1 -8 -7 -33 -13 -63 -16 -11 0 -19 -5 -15 -10
3 -5 -5 -7 -16 -4 -12 4 -22 2 -22 -3 0 -5 -9 -9 -20 -9 -11 0 -20 -5 -20 -11
0 -5 -4 -8 -9 -4 -12 7 -193 -64 -203 -79 -4 -6 -8 -7 -8 -2 0 5 -9 1 -20 -9
-11 -10 -20 -14 -20 -10 0 4 -8 1 -17 -7 -10 -9 -33 -23 -52 -33 -19 -9 -39
-21 -45 -26 -6 -5 -47 -37 -91 -72 -44 -35 -107 -94 -139 -131 -62 -69 -126
-158 -126 -175 0 -5 -5 -11 -11 -13 -5 -2 -11 -11 -13 -21 -1 -10 -10 -27 -19
-37 -9 -11 -14 -20 -11 -20 4 0 1 -7 -6 -15 -7 -8 -9 -15 -5 -15 4 0 1 -10 -7
-22 -15 -24 -63 -149 -61 -158 1 -3 -2 -9 -6 -15 -7 -9 -20 -51 -22 -72 -1 -5
-6 -17 -12 -28 -6 -11 -10 -26 -9 -32 2 -7 -2 -13 -7 -13 -6 0 -8 -6 -5 -14 3
-8 1 -17 -5 -20 -6 -4 -8 -13 -5 -20 3 -7 -2 -21 -11 -30 -12 -12 -13 -16 -3
-16 9 0 9 -3 2 -8 -6 -4 -10 -17 -9 -29 1 -13 -3 -19 -8 -16 -6 4 -8 0 -4 -10
3 -9 2 -19 -3 -22 -5 -3 -7 -12 -3 -20 3 -8 0 -15 -6 -15 -6 0 -11 -5 -11 -11
0 -5 6 -7 13 -3 9 6 9 4 -1 -8 -15 -19 -24 -51 -26 -95 0 -17 -4 -29 -7 -27
-3 2 -10 -17 -16 -41 -7 -32 -7 -43 1 -38 6 4 5 -1 -3 -10 -7 -9 -10 -17 -5
-17 5 0 0 -7 -10 -15 -11 -8 -15 -15 -9 -15 6 0 3 -32 -9 -87 -10 -49 -20 -99
-22 -113 -2 -14 -5 -25 -6 -25 -1 0 -3 -11 -4 -25 0 -14 -5 -30 -9 -37 -4 -6
-1 -14 5 -16 10 -4 10 -6 1 -6 -7 -1 -10 -8 -6 -18 5 -12 3 -14 -8 -8 -12 8
-12 6 0 -8 11 -14 11 -18 -4 -23 -13 -5 -14 -9 -4 -15 10 -6 10 -11 -2 -25 -9
-11 -9 -15 -1 -10 15 9 16 -6 0 -22 -7 -7 -8 -12 -4 -12 5 0 2 -8 -5 -17 -12
-14 -12 -15 -1 -9 11 7 12 4 4 -11 -6 -10 -9 -31 -8 -46 2 -15 -1 -30 -6 -33
-4 -3 -6 -10 -3 -15 4 -5 3 -15 -1 -21 -11 -17 -12 -48 -2 -42 4 3 8 0 8 -5 0
-6 -5 -11 -11 -11 -6 0 -9 -7 -5 -15 3 -8 1 -15 -5 -15 -6 0 -6 -7 1 -19 5
-11 6 -22 1 -25 -4 -3 -8 -24 -7 -46 1 -22 -1 -40 -4 -40 -5 0 -10 -60 -14
-152 0 -21 -5 -38 -10 -38 -5 0 -3 -7 4 -15 7 -9 8 -15 2 -15 -12 0 -11 -18 2
-39 6 -9 5 -12 -1 -8 -6 4 -13 -4 -15 -17 -4 -19 -1 -23 11 -19 13 4 13 2 -1
-10 -14 -11 -15 -16 -5 -27 7 -7 7 -10 2 -7 -7 3 -11 -25 -12 -76 -1 -45 -3
-109 -6 -142 -2 -34 1 -66 7 -74 8 -11 8 -13 -2 -7 -11 6 -12 -66 -10 -388 2
-218 5 -396 8 -396 3 0 5 -33 5 -73 0 -39 4 -78 10 -86 7 -11 7 -13 -2 -7 -16
9 -17 -6 -1 -22 9 -9 9 -12 -2 -12 -13 0 -13 -2 0 -10 12 -8 12 -10 1 -10 -11
0 -9 -5 5 -22 10 -12 14 -18 8 -15 -8 4 -11 -3 -10 -23 0 -17 4 -30 9 -30 4 0
3 -9 -3 -19 -5 -11 -6 -22 -2 -25 5 -3 8 -32 8 -65 -1 -34 2 -61 6 -61 3 0 4
-10 0 -22 -4 -16 -2 -19 9 -13 12 7 12 6 0 -9 -12 -14 -12 -19 -2 -26 9 -5 10
-10 2 -14 -7 -4 -8 -14 -3 -24 5 -9 8 -32 8 -49 -1 -18 2 -33 5 -33 3 0 4 -11
1 -25 -2 -14 0 -31 6 -38 7 -8 7 -18 2 -27 -5 -9 -5 -19 2 -27 5 -7 8 -20 4
-28 -3 -8 -2 -15 3 -15 4 0 7 -10 6 -22 -1 -13 2 -32 8 -42 7 -15 6 -18 -6
-13 -11 4 -14 2 -10 -8 3 -8 9 -13 13 -10 5 3 8 -15 7 -40 -1 -25 2 -45 7 -45
4 0 6 -7 2 -15 -3 -8 0 -15 7 -15 8 0 8 -3 -2 -9 -8 -5 -9 -10 -3 -12 6 -2 12
-28 14 -56 2 -29 6 -53 10 -53 4 0 8 -10 8 -22 2 -77 6 -115 13 -111 4 2 7 -2
8 -9 1 -13 2 -22 15 -100 3 -21 9 -38 13 -38 5 0 7 -13 6 -30 -1 -16 2 -30 6
-30 5 0 5 -7 2 -17 -4 -10 -2 -14 4 -10 7 4 10 -5 8 -23 -2 -20 3 -34 14 -40
9 -6 11 -10 4 -10 -7 0 -13 -5 -13 -11 0 -5 5 -7 10 -4 8 5 15 -31 11 -57 0
-5 3 -8 9 -8 5 0 10 -5 10 -11 0 -5 -6 -7 -12 -3 -7 4 -6 -1 3 -12 9 -10 15
-27 14 -37 -2 -9 0 -15 5 -12 4 3 10 -2 14 -10 3 -8 0 -15 -7 -15 -8 0 -6 -4
3 -10 8 -5 11 -10 6 -10 -5 0 -1 -10 10 -22 12 -13 13 -18 4 -13 -13 8 -13 6
-2 -8 8 -9 10 -22 6 -28 -4 -7 -3 -9 3 -6 6 4 16 -12 23 -38 7 -25 17 -45 23
-45 6 0 7 -3 4 -6 -3 -4 -1 -16 5 -28 12 -21 14 -27 17 -47 0 -5 5 -8 9 -5 4
2 9 -5 9 -16 1 -11 12 -31 24 -44 12 -13 18 -28 14 -35 -5 -8 -4 -10 3 -5 11
6 16 -6 13 -27 0 -4 5 -6 11 -5 7 2 12 -3 10 -9 -1 -7 3 -13 9 -13 5 0 7 -5 4
-10 -4 -6 -3 -9 2 -8 5 2 22 -11 38 -28 17 -16 23 -21 15 -10 -15 21 -15 21 8
2 12 -11 22 -25 22 -33 0 -8 5 -11 11 -8 5 4 18 0 28 -9 16 -15 165 -16 1647
-14 1541 3 1629 4 1628 20 -1 10 1 16 5 14 3 -2 22 7 41 20 19 13 30 24 25 24
-6 0 -3 5 5 10 12 8 11 10 -7 10 -13 0 -23 4 -23 8 0 5 -11 15 -25 22 -13 7
-23 16 -20 20 2 3 -6 12 -18 20 -19 11 -21 11 -12 -1 6 -8 1 -5 -10 8 -12 13
-25 23 -30 23 -6 0 -16 9 -23 20 -7 12 -17 18 -22 15 -6 -3 -10 1 -10 9 0 9
-7 16 -16 16 -8 0 -13 4 -10 8 2 4 -9 14 -25 21 -16 7 -29 16 -29 21 0 9 -67
79 -72 75 -2 -1 -12 7 -23 18 -11 11 -14 16 -6 12 9 -5 12 -4 7 3 -4 7 -14 12
-22 12 -8 0 -13 4 -9 9 3 5 -4 13 -15 16 -12 4 -26 18 -32 31 -6 13 -22 31
-35 39 -13 9 -21 20 -18 25 3 5 -4 11 -15 15 -11 3 -20 11 -20 16 0 8 -31 48
-72 90 -9 10 -14 20 -11 23 4 3 1 6 -5 6 -7 0 -12 7 -12 15 0 8 -4 15 -10 15
-5 0 -16 12 -24 28 -8 15 -27 40 -43 56 -15 16 -21 26 -13 22 8 -4 4 2 -9 13
-13 12 -20 21 -15 21 4 0 0 6 -10 13 -9 7 -18 22 -19 35 -1 12 -9 25 -19 28
-10 3 -18 13 -18 23 0 9 -9 27 -19 38 -11 12 -17 24 -14 27 4 3 1 6 -5 6 -7 0
-11 6 -9 13 1 6 -4 11 -11 9 -10 -2 -11 4 -7 19 5 15 4 19 -4 15 -7 -4 -11 1
-11 13 0 12 -4 21 -10 21 -5 0 -6 7 -3 17 4 10 2 14 -5 9 -13 -8 -21 4 -24 37
-1 14 -5 24 -8 22 -3 -2 -16 21 -29 51 -13 30 -28 54 -33 54 -5 0 -7 4 -4 8 7
12 -29 104 -37 96 -3 -4 -5 3 -2 15 2 13 -1 21 -11 21 -8 0 -14 5 -14 11 0 5
4 7 10 4 6 -3 7 1 4 9 -3 9 -10 13 -15 10 -5 -3 -6 2 -2 11 3 10 0 21 -8 26
-12 7 -12 9 1 9 12 1 11 3 -3 11 -12 7 -16 17 -11 31 4 14 2 18 -5 14 -9 -6
-14 19 -10 50 0 4 -4 10 -11 14 -6 4 -12 23 -13 42 -1 20 -5 34 -9 31 -5 -2
-8 2 -9 9 -1 14 -2 19 -19 83 -6 22 -13 55 -16 74 -2 19 -10 42 -17 50 -10 12
-9 13 2 6 11 -6 12 -5 5 6 -10 17 -14 34 -16 77 -1 17 -5 32 -8 32 -4 0 -6 10
-5 23 1 12 -2 30 -7 40 -6 12 -5 17 4 17 8 0 9 3 3 8 -5 4 -10 23 -10 42 0 19
-4 41 -9 47 -4 7 -6 31 -4 53 2 22 0 40 -5 40 -4 0 -5 5 -2 10 4 6 1 18 -7 27
-9 11 -9 14 -1 9 9 -5 12 5 10 39 -1 25 -6 45 -11 45 -5 0 -1 9 9 20 18 20 18
21 -1 14 -17 -7 -18 -6 -4 11 9 11 10 16 3 11 -7 -4 -13 -3 -13 3 0 5 6 12 13
15 9 5 9 7 0 12 -10 4 -10 11 -2 26 9 16 8 19 -3 12 -11 -6 -11 -5 1 9 11 14
11 17 0 17 -10 0 -10 3 -1 12 16 16 15 31 0 22 -10 -6 -10 -4 -2 7 12 17 12
58 0 78 -6 10 -5 12 2 7 11 -7 16 38 14 129 0 11 5 23 12 27 8 6 7 8 -2 8 -7
0 -10 5 -6 12 8 12 13 47 15 93 1 17 6 36 12 43 6 8 5 12 -4 12 -11 0 -11 2
-2 8 7 4 14 29 15 55 2 26 6 47 10 47 4 0 7 8 7 18 0 29 13 97 20 102 3 3 7
14 8 25 6 45 10 57 24 66 8 5 9 9 2 9 -6 0 -9 9 -6 20 3 11 8 20 12 20 4 0 7
8 8 18 5 45 16 82 26 82 6 0 8 3 4 6 -5 6 -1 22 29 99 4 11 6 23 6 28 -1 4 2
7 6 7 5 0 9 6 9 13 0 6 12 38 26 70 15 32 27 62 27 67 0 6 5 10 12 10 6 0 9 3
5 6 -7 7 40 106 56 115 5 4 6 12 3 18 -4 6 -3 11 2 11 5 0 12 8 16 18 8 25 56
108 104 180 23 35 42 65 42 68 0 2 6 12 14 21 8 10 42 55 74 99 146 198 332
387 544 551 85 67 292 203 306 203 7 0 12 4 12 8 0 4 12 13 28 19 15 7 46 23
70 37 23 15 49 26 56 26 8 0 16 5 18 11 2 5 10 11 19 12 9 2 28 11 43 21 15
10 30 15 33 12 3 -3 12 2 20 10 8 8 19 12 24 9 5 -4 9 -2 9 2 0 9 97 48 131
52 5 0 7 5 4 11 -3 6 1 7 10 4 8 -4 21 -1 28 5 8 6 24 13 38 15 13 3 26 5 29
6 3 2 8 2 13 1 4 0 7 4 7 10 0 5 5 7 10 4 6 -4 16 -2 23 3 7 6 24 12 37 14 14
2 31 7 38 12 7 4 16 5 19 2 3 -3 12 -1 20 5 7 6 13 8 13 4 0 -4 7 -2 15 5 12
10 18 10 30 0 13 -11 14 -10 10 2 -3 8 0 15 7 16 7 1 31 4 53 8 22 3 54 7 72
8 17 0 29 4 26 9 -2 4 10 8 26 8 29 1 48 4 54 8 3 3 70 10 117 14 19 1 40 5
45 8 6 4 25 5 43 3 22 -2 30 1 26 9 -5 9 -4 9 6 0 7 -7 21 -9 34 -4 32 11 526
3 526 -9 0 -4 67 -11 157 -14 17 0 29 -4 26 -8 -2 -5 14 -8 36 -8 23 0 41 -3
41 -7 0 -5 20 -9 45 -11 24 -1 56 -7 70 -12 15 -6 40 -10 56 -10 16 0 29 -4
29 -10 0 -5 7 -6 17 -3 9 4 14 2 10 -3 -5 -9 11 -12 65 -15 10 0 21 -5 24 -11
5 -7 2 -8 -6 -3 -9 5 -11 4 -6 -4 6 -9 11 -9 22 0 11 9 14 9 14 0 0 -7 4 -10
9 -6 5 3 13 0 16 -6 4 -5 13 -8 21 -5 8 3 14 0 14 -5 0 -6 9 -9 19 -6 12 3 22
-1 25 -10 5 -13 9 -13 23 -2 12 10 14 10 9 2 -4 -8 -1 -13 8 -13 9 0 16 -5 16
-11 0 -5 8 -9 18 -7 9 1 33 -5 52 -14 95 -44 130 -58 145 -58 9 0 13 -5 9 -11
-4 -7 -1 -10 7 -7 17 6 89 -30 89 -44 0 -5 4 -7 9 -3 5 3 16 -1 24 -9 8 -8 17
-12 21 -9 3 4 6 1 6 -6 0 -7 4 -10 9 -7 5 4 11 3 13 -1 1 -5 29 -21 61 -38 31
-16 57 -33 57 -38 0 -4 5 -5 10 -2 6 3 10 2 10 -3 0 -4 16 -16 35 -25 19 -9
35 -22 35 -27 0 -6 4 -9 9 -6 5 4 11 2 13 -3 1 -5 10 -11 18 -13 8 -2 21 -11
28 -20 7 -10 20 -18 28 -18 8 0 12 -4 9 -10 -3 -5 2 -10 12 -10 10 0 30 -13
43 -28 14 -16 28 -28 33 -28 4 1 25 -16 47 -38 22 -21 40 -35 40 -31 0 4 13
-6 28 -21 15 -16 36 -34 47 -41 11 -6 19 -16 18 -22 -2 -6 2 -11 7 -11 6 0 21
-11 34 -25 13 -13 26 -22 29 -18 4 3 7 1 7 -5 0 -15 102 -117 114 -114 5 2 6
-4 3 -12 -4 -9 -3 -15 2 -13 10 3 61 -57 61 -73 0 -6 5 -8 10 -5 6 3 10 3 10
-2 0 -4 16 -26 35 -47 19 -21 32 -43 29 -48 -3 -5 0 -7 8 -6 7 2 12 -2 11 -9
-2 -6 6 -15 17 -18 11 -4 18 -10 16 -14 -3 -4 6 -19 20 -34 14 -15 22 -27 19
-27 -3 0 3 -10 14 -22 11 -11 18 -24 16 -29 -3 -4 5 -16 18 -26 23 -18 27 -24
27 -44 0 -5 4 -8 9 -5 11 7 23 -22 15 -35 -3 -5 2 -9 11 -9 9 0 13 -4 10 -10
-3 -5 -2 -10 3 -10 6 0 13 -11 16 -25 4 -14 11 -25 16 -25 6 0 10 -9 10 -21 0
-11 5 -17 10 -14 6 3 10 0 10 -8 0 -23 26 -67 35 -59 5 4 5 -1 2 -10 -4 -10
-2 -18 4 -18 6 0 8 -4 5 -9 -4 -5 -2 -11 3 -13 5 -1 11 -10 13 -18 2 -8 6 -17
10 -20 3 -3 8 -12 10 -20 2 -8 9 -21 16 -29 7 -7 11 -19 8 -26 -3 -8 2 -16 11
-19 9 -4 13 -14 10 -26 -3 -11 -2 -18 2 -16 8 5 37 -63 33 -76 -1 -5 2 -8 7
-8 5 0 12 -7 15 -16 4 -9 2 -13 -5 -8 -6 3 -4 -4 4 -17 9 -13 17 -33 19 -44 2
-11 7 -23 11 -26 4 -3 9 -17 9 -30 1 -13 8 -32 16 -41 8 -10 12 -24 9 -33 -4
-8 -2 -15 4 -15 6 0 9 -7 5 -15 -3 -8 -1 -15 4 -15 5 0 7 -9 5 -20 -2 -11 0
-20 4 -20 8 0 11 -12 14 -59 1 -16 5 -27 10 -24 4 2 8 -3 8 -11 1 -9 2 -19 3
-23 1 -5 6 -28 10 -53 5 -25 11 -49 14 -54 3 -5 7 -32 9 -60 2 -28 7 -53 11
-56 4 -3 8 -36 10 -75 2 -38 6 -72 10 -75 10 -8 8 -34 -3 -42 -7 -5 -6 -8 0
-8 10 0 14 -48 18 -195 1 -33 6 -63 12 -67 6 -5 6 -8 -2 -8 -15 0 -13 -50 2
-50 6 0 6 -3 -1 -8 -6 -4 -11 -41 -12 -82 -1 -122 -6 -170 -15 -170 -4 0 -5
-6 0 -12 11 -18 13 -39 3 -33 -5 3 -8 -13 -7 -35 2 -22 -1 -40 -6 -40 -4 0 -7
-6 -6 -12 2 -10 -10 -125 -16 -148 -1 -3 -5 -21 -10 -40 -5 -19 -10 -43 -11
-52 -1 -10 -3 -20 -4 -23 -4 -7 -5 -15 -14 -65 -5 -25 -15 -53 -24 -62 -11
-13 -12 -18 -2 -18 10 0 10 -3 0 -15 -7 -8 -9 -15 -4 -15 5 0 1 -5 -9 -11 -14
-8 -16 -14 -6 -25 8 -10 8 -14 0 -14 -6 0 -10 -3 -10 -7 4 -25 -2 -43 -12 -37
-7 4 -10 1 -7 -7 3 -8 0 -28 -7 -46 -8 -17 -11 -34 -7 -37 3 -3 0 -6 -7 -6 -7
0 -11 -6 -8 -13 3 -7 -1 -21 -9 -31 -7 -11 -11 -23 -8 -27 3 -5 0 -9 -7 -9 -7
0 -9 -3 -6 -6 4 -4 0 -19 -8 -33 -22 -40 -55 -119 -55 -130 0 -6 -4 -11 -9
-11 -5 0 -11 -14 -15 -31 -3 -17 -9 -28 -14 -25 -4 2 -9 -4 -9 -15 -1 -11 -11
-31 -22 -45 -12 -15 -18 -30 -15 -35 3 -5 2 -9 -3 -9 -4 0 -19 -21 -33 -47
-14 -27 -28 -52 -33 -58 -4 -5 -37 -55 -73 -110 -37 -55 -100 -143 -142 -195
-95 -120 -309 -335 -427 -429 -118 -94 -165 -137 -165 -151 0 -6 -4 -9 -9 -6
-5 3 -11 -1 -15 -9 -3 -8 0 -15 7 -15 7 0 660 0 1451 0 1044 0 1443 3 1453 11
10 9 13 8 13 -2 0 -10 3 -10 8 -3 4 6 21 18 38 27 76 39 265 270 256 313 -2 8
1 14 6 14 10 0 35 52 39 80 1 8 7 16 12 18 6 2 11 10 11 17 0 8 5 26 12 42 14
34 13 31 23 68 4 17 11 35 16 40 4 6 8 13 8 18 2 19 14 63 21 72 4 6 6 20 5
32 -1 13 3 23 8 23 5 0 7 9 4 20 -3 13 -1 18 6 13 6 -4 8 2 5 15 -4 12 -2 22
2 22 5 0 7 11 6 25 -2 13 1 22 5 19 8 -4 14 34 10 59 0 4 5 7 11 7 9 0 8 4 -2
10 -8 5 -10 10 -4 10 6 0 11 6 12 13 6 44 10 72 12 72 1 0 4 13 6 29 2 16 9
33 16 37 10 7 10 9 1 9 -9 0 -10 7 -4 23 10 26 11 31 11 58 0 11 3 18 8 15 4
-2 6 14 4 36 -3 22 0 38 4 35 5 -3 10 12 11 34 2 67 5 89 12 85 3 -2 6 20 5
50 -1 40 3 57 15 64 11 6 12 9 3 10 -9 0 -11 10 -6 34 3 19 7 52 9 73 2 21 4
38 5 38 3 0 11 90 13 138 1 20 6 37 11 37 4 0 2 8 -5 17 -10 11 -10 14 -1 9 7
-4 12 -1 12 8 0 9 -6 16 -12 16 -9 0 -8 4 2 10 8 5 11 10 5 10 -5 0 -3 5 5 10
8 5 11 10 5 10 -5 0 -10 11 -10 25 0 14 2 25 5 25 4 0 6 17 5 38 0 20 3 47 7
60 5 14 3 22 -4 22 -9 0 -9 3 0 12 15 15 16 32 1 22 -6 -3 -3 6 7 22 12 17 14
25 5 20 -10 -6 -12 -4 -7 11 3 11 7 43 7 71 1 32 5 49 12 45 6 -4 7 -1 1 8
-12 19 -12 82 1 91 7 5 6 8 -1 8 -11 0 -12 35 -1 46 4 4 2 13 -4 20 -7 8 -7
14 1 19 8 5 7 11 -2 23 -11 13 -11 14 0 8 16 -10 13 25 -3 36 -6 5 -6 8 2 8
17 0 19 530 1 530 -9 0 -10 2 -2 8 15 9 15 64 0 55 -6 -4 -5 1 3 11 13 15 13
19 0 27 -10 6 -10 9 -1 9 14 0 12 21 -3 32 -6 5 -5 8 4 8 11 0 11 3 0 17 -12
15 -12 16 1 8 12 -7 13 -6 3 6 -10 12 -10 18 -1 27 7 7 8 12 2 12 -13 0 -12
50 0 69 7 10 6 12 -4 6 -10 -6 -12 -4 -7 7 3 9 0 21 -6 27 -6 6 -7 11 -1 11 5
0 9 14 10 31 1 21 -2 26 -8 17 -11 -17 -6 31 5 49 5 8 3 11 -5 8 -9 -4 -14 2
-14 14 0 11 3 18 7 15 4 -2 6 4 4 13 -2 10 -4 18 -6 18 -3 0 -7 61 -8 118 -1
36 -4 46 -13 41 -8 -5 -8 -1 1 10 13 15 13 19 0 27 -12 7 -12 9 1 9 11 0 12 2
2 8 -7 5 -11 19 -8 33 2 13 -1 29 -6 36 -5 7 -5 14 2 18 7 4 7 12 0 24 -5 10
-6 21 -3 25 3 3 1 6 -5 6 -7 0 -12 5 -12 11 0 5 4 8 8 5 10 -6 8 21 -2 46 -4
9 -8 40 -9 67 -1 28 -4 51 -7 51 -6 0 -13 58 -13 98 1 12 -2 22 -6 22 -7 0
-13 46 -15 112 -1 20 -4 34 -8 31 -5 -2 -9 4 -9 14 -2 34 -8 78 -12 98 -6 25
-20 97 -23 110 -1 6 -2 18 -3 28 0 10 -5 16 -9 13 -5 -3 -9 1 -9 9 0 8 5 12
10 8 5 -3 4 4 -2 16 -7 12 -9 26 -6 31 3 6 1 10 -6 10 -7 0 -9 3 -6 7 4 3 1
13 -6 21 -10 13 -9 14 3 7 13 -8 13 -7 1 8 -7 9 -10 17 -6 17 4 0 2 7 -5 15
-7 8 -9 15 -5 15 4 0 3 6 -4 13 -8 10 -7 17 1 25 8 8 9 12 1 12 -6 0 -14 7
-17 16 -4 10 -2 13 7 8 9 -6 9 -5 0 8 -7 8 -10 18 -6 21 3 4 1 7 -5 7 -7 0
-12 5 -12 11 0 5 6 7 13 3 6 -4 5 1 -4 12 -8 10 -15 26 -14 34 0 8 -3 18 -8
21 -4 3 -9 22 -10 41 -1 20 -5 34 -9 31 -5 -2 -9 3 -9 11 -1 9 -2 19 -4 24 -1
4 -5 24 -9 45 -5 20 -11 37 -15 37 -4 0 -8 12 -9 26 -1 15 -7 33 -13 40 -6 7
-9 19 -7 26 3 7 -5 21 -16 31 -12 10 -15 16 -8 12 6 -3 12 -1 12 4 0 6 -5 11
-11 11 -6 0 -9 7 -5 15 3 8 1 15 -4 15 -6 0 -10 9 -10 19 0 11 -4 21 -10 23
-5 2 -11 14 -12 28 -2 14 -10 30 -18 37 -12 10 -12 12 -1 13 8 0 4 8 -10 20
-13 10 -20 19 -15 20 5 0 1 9 -9 20 -10 11 -15 20 -11 20 4 0 -4 15 -18 33
-14 19 -23 37 -18 42 4 5 3 6 -3 3 -5 -3 -16 0 -23 8 -7 8 -10 14 -7 14 3 0
-5 12 -19 27 -14 15 -23 30 -20 35 3 5 2 8 -3 7 -21 -4 -32 3 -38 21 -4 12
-15 20 -28 20 -17 0 -19 2 -8 9 11 7 9 10 -8 16 -11 3 -21 13 -21 21 0 8 -5
14 -11 14 -5 0 -7 -6 -3 -12 3 -7 -5 -2 -19 12 -42 40 -54 49 -61 43 -3 -4 -6
-1 -6 5 0 6 -9 14 -20 17 -11 4 -18 11 -15 16 3 5 -1 6 -9 3 -10 -4 -16 -1
-16 7 0 7 -3 9 -7 6 -3 -4 -12 1 -20 11 -8 9 -12 11 -8 5 10 -20 -2 -15 -25 9
-14 15 -20 18 -20 7 -1 -10 -3 -9 -11 4 -6 9 -14 15 -20 12 -5 -4 -9 -1 -9 5
0 7 -6 10 -12 7 -7 -2 -21 2 -30 10 -9 8 -28 16 -42 17 -14 0 -26 4 -26 9 0 4
-7 7 -15 7 -8 0 -15 6 -15 13 0 8 -4 7 -10 -3 -5 -8 -10 -10 -10 -4 0 7 -12
14 -27 17 -16 3 -39 8 -53 12 -14 4 -31 7 -37 7 -7 1 -13 5 -13 9 0 4 -10 5
-22 1 -13 -3 -19 -1 -15 6 5 7 -3 9 -23 6 -20 -4 -30 -1 -30 8 0 11 -2 10 -9
0 -7 -11 -9 -11 -14 2 -4 9 -14 16 -24 15 -16 0 -16 -2 2 -10 17 -8 16 -9 -5
-3 -14 3 -31 6 -37 6 -7 1 -13 5 -13 10 0 5 -6 6 -12 1 -18 -11 -38 -13 -38
-3 0 12 -44 18 -69 8 -12 -4 -20 -4 -17 1 7 11 -64 12 -942 13 l-784 1 -50 48
c-28 27 -47 49 -42 49 5 0 2 5 -7 10 -10 6 -15 20 -14 35 2 14 -2 28 -7 32 -7
4 -8 1 -3 -7 5 -9 4 -11 -4 -6 -6 4 -10 13 -9 19 1 7 -4 23 -11 36 -8 14 -9
21 -2 17 6 -4 11 -2 11 3 0 6 -7 11 -16 11 -8 0 -12 5 -8 11 3 6 1 15 -6 19
-7 4 -13 21 -14 38 0 17 -4 28 -8 25 -5 -2 -9 1 -9 6 -1 6 -3 14 -4 19 -2 4
-6 17 -10 29 -4 13 -11 20 -16 18 -4 -3 -6 4 -4 15 2 11 0 20 -6 20 -5 0 -8 3
-7 8 3 14 -25 91 -33 87 -4 -3 -5 4 -2 15 3 11 0 20 -6 20 -6 0 -11 12 -11 26
0 17 -4 23 -12 18 -8 -5 -9 -2 -5 9 3 10 2 17 -3 17 -6 0 -9 3 -8 8 1 4 -4 20
-10 35 -7 16 -9 33 -6 39 4 7 2 8 -4 4 -11 -6 -17 12 -13 37 0 4 -3 7 -8 7 -5
0 -12 12 -15 26 -10 40 -40 104 -48 104 -5 0 -8 7 -8 15 0 8 -3 14 -7 13 -9
-3 -65 32 -75 47 -4 5 -8 6 -8 2 0 -5 -7 -1 -16 7 -8 9 -20 14 -25 11 -5 -4
-9 -1 -9 5 0 6 -4 8 -10 5 -5 -3 -10 -1 -10 5 0 6 -4 8 -10 5 -5 -3 -10 -1
-10 5 0 6 -4 8 -10 5 -5 -3 -10 -1 -10 5 0 6 -4 8 -10 5 -5 -3 -10 -2 -10 3 0
9 -62 27 -87 25 -7 0 -10 3 -7 8 3 5 -4 9 -16 9 -13 0 -19 4 -14 12 4 6 3 8
-4 5 -19 -12 -112 15 -112 32 0 11 -3 12 -8 4 -9 -14 -28 -12 -61 6 -19 11
-22 11 -15 -1 6 -10 5 -11 -7 -2 -8 6 -22 10 -31 9 -10 -2 -18 0 -18 5 0 4
-10 6 -22 3 -19 -4 -20 -3 -8 7 12 9 9 11 -15 7 -16 -3 -38 -1 -49 5 -14 8
-17 7 -10 -4 6 -10 5 -11 -7 -2 -8 6 -22 10 -32 9 -9 -2 -14 1 -11 6 3 6 -9 8
-30 6 -20 -2 -36 -1 -36 3 0 4 -22 7 -49 6 -27 0 -47 3 -44 7 3 5 -3 7 -13 6
-11 -2 -25 0 -32 5 -7 4 -19 3 -27 -4 -8 -7 -15 -9 -15 -4 0 5 -24 10 -53 12
-28 1 -60 5 -71 8 -14 5 -16 3 -10 -7 6 -11 5 -12 -7 -3 -18 14 -49 14 -50 0
0 -6 -4 -2 -9 9 -6 13 -9 15 -9 5 -1 -13 -2 -13 -11 0 -8 12 -11 13 -19 1 -6
-10 -10 -10 -16 -1 -6 9 -10 9 -16 -1 -5 -8 -9 -9 -9 -3 0 7 -93 10 -300 10
-165 0 -300 -4 -300 -8 0 -4 -5 -8 -11 -8 -5 0 -7 6 -3 13 6 9 4 9 -8 -1 -13
-10 -17 -10 -20 0 -3 7 -7 8 -10 2z m4532 -1901 c0 -7 7 -13 16 -13 8 0 12 -4
9 -10 -3 -5 1 -10 10 -10 9 0 14 -4 10 -9 -3 -5 4 -12 15 -16 11 -3 20 -13 20
-21 0 -9 5 -12 12 -8 8 5 9 2 5 -9 -3 -10 -3 -17 1 -17 4 0 8 -9 8 -20 0 -11
-4 -20 -8 -20 -5 0 -4 -9 2 -20 6 -11 7 -20 2 -20 -4 0 -8 -9 -8 -19 0 -15 3
-17 13 -9 10 8 12 7 7 -6 -3 -9 -10 -16 -15 -16 -6 0 -5 -10 2 -21 9 -17 8
-23 -2 -30 -11 -7 -11 -9 1 -9 11 0 12 -2 3 -8 -7 -5 -9 -13 -3 -21 4 -8 4
-25 -1 -38 -5 -15 -5 -22 0 -18 5 3 12 1 16 -5 3 -5 -1 -10 -10 -10 -13 0 -14
-4 -5 -20 8 -14 8 -20 0 -20 -7 0 -8 -6 -2 -17 5 -10 6 -27 2 -38 -4 -11 -5
-25 -3 -30 2 -6 -8 -22 -21 -34 l-25 -24 -617 0 c-566 0 -617 1 -626 17 -5 9
-14 14 -19 10 -5 -3 -8 0 -7 8 2 7 -3 12 -9 11 -7 -2 -13 2 -13 8 0 16 -26 39
-35 31 -5 -4 -5 -2 -2 5 4 6 1 18 -7 25 -9 10 -11 20 -4 31 6 12 5 17 -3 17
-8 0 -7 5 2 17 12 15 12 16 -1 8 -13 -8 -13 -7 -1 8 10 13 10 17 1 17 -10 0
-10 3 0 15 10 12 10 15 0 15 -10 0 -10 3 0 15 10 12 10 15 -1 15 -11 0 -11 2
1 10 11 7 11 10 2 10 -9 0 -10 5 -3 18 6 11 6 24 1 32 -6 9 -5 17 3 22 9 6 9
8 0 8 -7 0 -13 5 -13 11 0 5 6 7 13 3 9 -5 9 -4 0 6 -9 10 -10 17 -2 27 7 7 7
13 2 13 -5 0 -10 7 -10 15 0 8 4 12 9 9 4 -3 8 0 8 5 0 6 -6 11 -12 12 -9 0
-9 2 1 6 11 5 11 7 0 14 -12 8 -11 11 1 19 12 8 12 10 1 10 -11 0 -11 3 -1 15
7 8 9 15 6 15 -4 0 4 11 18 23 l25 24 621 0 c512 0 620 -2 620 -14z m-1709
-1330 c13 -16 12 -17 -3 -4 -10 7 -18 15 -18 17 0 8 8 3 21 -13z"/>
<path d="M6556 8483 c-4 -4 -16 -9 -27 -9 -10 -1 -20 -2 -21 -4 -2 -1 -25 -3
-53 -5 -27 -2 -50 -4 -50 -5 0 -1 -11 -3 -25 -5 -14 -2 -35 -6 -46 -8 -12 -3
-39 -8 -60 -11 -21 -4 -41 -11 -45 -17 -5 -8 -9 -8 -14 1 -5 8 -13 6 -28 -7
-11 -10 -17 -12 -13 -5 10 16 -6 15 -30 -3 -24 -18 -38 -19 -28 -2 5 8 2 8 -9
-2 -9 -7 -17 -10 -17 -6 0 4 -12 0 -26 -10 -14 -9 -32 -14 -40 -11 -8 3 -14 0
-14 -6 0 -6 -3 -8 -7 -5 -3 4 -12 2 -20 -4 -7 -6 -13 -8 -13 -4 0 4 -7 2 -16
-6 -12 -10 -17 -10 -23 0 -7 10 -9 10 -14 -1 -4 -12 -71 -39 -92 -38 -3 0 -21
-9 -40 -20 -20 -11 -40 -20 -46 -20 -6 0 -33 -11 -60 -25 -27 -13 -49 -22 -49
-19 0 3 -7 -2 -16 -10 -8 -9 -20 -14 -25 -11 -5 4 -9 2 -9 -2 0 -9 -59 -37
-72 -34 -5 0 -8 -4 -8 -10 0 -5 -4 -7 -10 -4 -5 3 -10 3 -10 -2 0 -4 -29 -24
-65 -42 -36 -19 -65 -39 -65 -43 0 -4 -9 -8 -19 -8 -11 0 -21 -3 -23 -7 -1 -5
-41 -34 -88 -65 -91 -61 -95 -64 -234 -178 -161 -132 -376 -360 -500 -530 -89
-122 -145 -207 -157 -237 -5 -13 -13 -23 -19 -23 -6 0 -9 -4 -5 -9 3 -5 0 -15
-7 -23 -7 -7 -24 -36 -38 -63 -14 -28 -28 -52 -33 -53 -4 -2 -5 -8 -1 -13 3
-5 1 -9 -4 -9 -9 0 -27 -47 -24 -62 1 -5 -2 -8 -8 -8 -5 0 -10 -9 -10 -20 0
-11 -4 -20 -10 -20 -5 0 -10 -9 -10 -19 0 -11 -4 -22 -9 -26 -5 -3 -12 -19
-16 -35 -4 -17 -11 -30 -16 -30 -6 0 -8 -3 -6 -7 3 -5 0 -19 -6 -33 -5 -14
-12 -34 -14 -45 -2 -11 -8 -22 -13 -23 -6 -2 -8 -8 -4 -13 3 -5 1 -9 -4 -9 -6
0 -8 -9 -5 -20 3 -11 0 -20 -6 -20 -5 0 -8 -7 -5 -15 4 -8 2 -15 -4 -15 -6 0
-9 -8 -7 -17 1 -10 -2 -23 -7 -30 -5 -7 -11 -22 -13 -35 -6 -38 -10 -52 -18
-65 -5 -7 -6 -13 -3 -13 3 0 -1 -21 -9 -46 -7 -25 -11 -52 -8 -60 3 -8 1 -14
-4 -14 -6 0 -10 -12 -11 -27 -1 -16 -4 -39 -7 -53 -3 -14 -8 -50 -11 -80 -4
-30 -11 -58 -18 -62 -8 -5 -7 -8 3 -8 9 0 10 -4 4 -12 -5 -7 -9 -41 -9 -75 1
-35 -1 -63 -4 -63 -3 0 -5 -18 -3 -40 1 -29 -1 -39 -10 -34 -8 5 -8 3 1 -7 13
-14 17 -33 4 -25 -4 2 -8 -4 -8 -14 0 -10 4 -16 8 -14 4 3 8 1 8 -5 0 -5 -4
-12 -9 -15 -10 -7 -9 -25 2 -43 5 -8 3 -13 -5 -13 -10 0 -10 -2 1 -9 11 -7 11
-9 0 -14 -12 -5 -12 -6 0 -6 11 -1 11 -4 0 -18 -10 -11 -10 -14 -1 -9 6 4 12
3 12 -1 0 -5 -6 -15 -12 -22 -8 -9 -9 -11 -1 -7 8 4 12 -11 13 -52 4 -145 5
-172 12 -172 3 0 5 -8 3 -17 -1 -10 0 -22 3 -27 3 -5 6 -28 7 -50 0 -23 4 -46
7 -51 3 -6 9 -35 14 -65 4 -30 9 -58 10 -62 1 -5 2 -15 3 -24 1 -9 6 -12 14
-8 9 6 9 5 0 -7 -8 -10 -9 -19 -3 -25 5 -5 10 -24 12 -42 1 -17 6 -32 10 -32
4 0 5 -7 2 -15 -4 -8 -2 -15 4 -15 6 0 8 -9 5 -20 -3 -12 0 -20 8 -20 7 0 9
-3 6 -7 -4 -3 -2 -12 5 -20 6 -7 8 -16 5 -20 -3 -3 1 -19 9 -35 8 -16 12 -33
9 -37 -3 -5 0 -11 7 -13 6 -2 11 -18 11 -36 0 -17 4 -29 7 -27 4 3 15 -17 24
-43 9 -26 23 -60 31 -77 7 -16 17 -40 20 -53 4 -12 11 -20 16 -17 5 3 6 -1 3
-9 -4 -10 -1 -16 7 -16 7 0 9 -3 6 -6 -4 -4 3 -20 15 -37 13 -19 16 -28 7 -23
-7 4 -4 -1 8 -12 12 -11 19 -22 16 -26 -3 -3 1 -14 10 -24 10 -10 14 -22 10
-25 -3 -4 -1 -7 5 -7 7 0 12 -7 12 -15 0 -8 5 -15 11 -15 5 0 7 -4 4 -10 -3
-6 -2 -10 2 -10 5 0 19 -23 32 -50 13 -28 29 -54 34 -57 6 -4 7 -1 2 8 -5 8
-4 10 0 6 5 -4 10 -15 11 -25 2 -9 8 -18 13 -20 6 -2 11 -12 11 -22 0 -11 9
-24 20 -30 11 -6 20 -15 20 -21 0 -10 9 -23 41 -58 8 -10 18 -25 22 -34 3 -9
11 -17 16 -17 5 0 13 -9 16 -20 4 -11 11 -17 17 -14 7 5 9 1 5 -9 -3 -9 -3
-16 1 -14 12 4 53 -43 47 -53 -4 -6 0 -10 9 -10 8 0 24 -16 36 -36 14 -22 28
-33 37 -30 8 3 12 2 9 -3 -7 -11 29 -53 38 -44 3 3 6 -1 6 -10 0 -10 8 -17 17
-17 9 0 14 -3 10 -6 -8 -8 18 -34 34 -34 7 0 9 -3 6 -6 -10 -10 34 -45 46 -37
5 3 7 2 4 -3 -3 -5 5 -19 19 -29 13 -11 38 -32 55 -47 17 -16 35 -28 41 -28 5
0 6 -4 3 -10 -3 -5 0 -10 8 -10 8 0 26 -11 41 -25 15 -14 34 -25 43 -25 9 0
13 -3 10 -7 -8 -7 63 -59 76 -55 4 1 7 -2 7 -6 0 -5 12 -14 26 -20 14 -7 22
-17 18 -23 -4 -8 0 -9 15 -4 15 5 21 2 21 -10 0 -9 5 -13 10 -10 6 3 10 1 10
-5 0 -6 4 -9 9 -6 5 4 11 2 13 -3 1 -5 10 -11 18 -13 20 -4 39 -21 33 -30 -2
-4 3 -5 11 -2 9 3 16 1 16 -5 0 -6 3 -10 8 -9 15 4 50 -13 56 -27 3 -8 12 -12
20 -9 8 3 23 -3 33 -13 11 -11 25 -17 31 -15 7 2 12 -1 12 -8 0 -6 5 -8 10 -5
6 3 10 1 10 -5 0 -6 5 -8 10 -5 6 3 10 1 10 -5 0 -7 8 -9 23 -4 12 3 19 3 14
-2 -10 -10 70 -47 85 -38 7 4 8 3 4 -4 -6 -11 5 -15 30 -11 4 0 10 -3 13 -8 3
-5 26 -15 51 -23 25 -7 47 -14 50 -15 3 -1 19 -6 37 -10 17 -4 34 -13 37 -21
3 -8 11 -14 18 -14 9 0 8 3 -2 10 -8 5 -10 10 -5 10 6 0 20 -7 32 -15 12 -8
28 -12 37 -9 10 4 16 1 16 -7 0 -7 3 -9 7 -6 3 4 12 2 20 -4 10 -9 13 -8 13 1
0 9 7 7 22 -6 12 -10 18 -13 14 -7 -5 9 -2 11 8 7 9 -3 16 -11 16 -18 0 -6 5
-4 10 4 7 12 10 12 10 1 0 -8 6 -11 16 -7 9 4 23 1 30 -5 8 -6 20 -9 28 -6 8
3 17 3 20 -1 4 -3 21 -7 39 -9 42 -5 72 -10 72 -12 0 -1 16 -4 35 -7 19 -2 52
-6 73 -9 27 -3 36 -1 31 7 -4 6 3 4 16 -5 18 -12 27 -14 37 -5 8 7 13 7 13 0
0 -7 78 -9 233 -7 247 3 354 11 375 27 8 7 12 7 12 1 0 -7 19 -6 53 2 28 6 60
11 70 9 9 -1 17 3 17 9 0 5 3 7 7 4 3 -4 13 -1 21 6 13 9 14 9 8 0 -4 -7 -2
-13 3 -13 6 0 11 5 11 11 0 5 8 9 18 8 9 -1 19 0 22 1 3 1 18 4 35 6 16 3 35
10 42 16 8 6 16 8 20 5 3 -4 13 -1 21 6 13 10 14 9 7 -3 -7 -12 -6 -13 7 -3 8
7 18 10 21 6 4 -3 7 -1 7 6 0 7 7 11 15 8 8 -4 17 -2 20 4 4 5 10 7 15 4 5 -3
12 0 15 6 4 5 13 8 20 5 8 -3 15 -1 17 4 2 5 12 11 23 13 20 4 29 7 90 30 17
7 33 11 38 9 4 -1 7 3 7 8 0 5 3 9 8 8 9 -2 31 7 100 38 29 13 57 24 62 24 6
0 10 4 10 10 0 5 3 9 8 8 12 -3 158 74 239 125 24 15 47 27 52 27 5 0 11 3 13
8 2 4 39 32 83 62 74 50 204 146 215 159 3 3 23 21 45 40 145 122 347 339 454
486 28 39 59 80 68 93 10 13 25 37 34 53 9 15 19 26 23 22 3 -3 6 0 6 8 0 15
68 130 83 140 5 3 8 10 8 15 -2 19 11 44 21 44 6 0 8 3 5 7 -4 3 1 15 10 26
10 10 17 21 16 23 -4 6 31 79 40 82 4 2 5 7 2 12 -3 5 2 15 10 24 9 8 15 17
14 18 -2 2 3 19 11 38 7 19 14 37 14 40 1 3 8 16 16 30 7 14 13 26 12 28 -7
10 0 22 10 16 6 -4 8 -3 5 3 -8 12 14 85 28 95 6 5 4 8 -5 8 -12 1 -12 2 2 10
10 6 14 18 11 30 -3 12 0 20 6 20 7 0 9 5 6 10 -3 6 -2 10 4 10 5 0 8 11 6 25
-1 14 1 25 5 25 4 0 6 10 6 23 -1 12 4 30 12 40 9 9 12 17 8 17 -4 0 -2 10 5
21 9 17 8 20 -3 13 -10 -6 -11 -5 -1 8 7 8 10 18 6 21 -3 4 -2 7 3 7 6 0 10
10 11 23 0 12 4 38 8 57 4 19 9 49 11 65 11 80 13 90 15 95 0 3 0 13 -1 24 -1
10 2 16 7 13 4 -3 8 28 7 69 0 41 2 74 5 74 3 0 5 27 4 60 -1 35 2 58 8 55 5
-3 6 1 3 9 -3 9 -11 13 -18 9 -6 -3 -2 4 9 17 11 13 15 20 9 17 -7 -4 -11 3
-11 18 0 14 5 25 11 25 6 0 5 4 -3 9 -13 8 -13 12 0 27 12 15 12 16 0 9 -11
-6 -13 -3 -9 13 3 12 1 23 -6 26 -8 3 -8 5 0 5 8 1 9 12 4 35 -4 19 -4 40 1
47 4 7 3 21 -3 32 -5 10 -7 21 -4 24 2 3 1 16 -4 29 -6 14 -6 26 1 29 5 4 6
12 2 18 -8 12 -9 22 -17 102 -3 22 -5 40 -6 40 -3 0 -11 39 -13 62 -1 13 -4
23 -7 23 -3 0 -6 16 -6 36 -1 20 -7 40 -14 44 -10 6 -10 8 1 12 9 3 9 7 -2 18
-9 8 -14 26 -11 44 2 22 1 27 -6 17 -7 -10 -10 -4 -11 23 -2 58 -4 65 -12 61
-4 -3 -10 2 -13 11 -4 10 -2 13 7 8 8 -6 8 -3 -1 9 -8 9 -11 20 -8 26 3 5 1
11 -5 13 -6 2 -12 16 -12 31 -1 15 -6 27 -11 27 -4 0 -6 9 -3 20 3 11 1 18 -4
14 -5 -3 -9 2 -9 10 0 24 -2 30 -17 45 -11 11 -11 16 -1 29 8 9 8 13 2 9 -11
-6 -20 10 -38 66 -3 10 -10 16 -15 13 -5 -3 -7 3 -4 14 3 11 1 20 -5 20 -5 0
-13 7 -16 16 -4 10 -2 13 7 9 6 -4 3 1 -8 10 -11 9 -19 18 -17 20 6 12 1 36
-7 31 -5 -3 -12 1 -15 10 -3 8 -2 12 4 9 16 -10 12 0 -10 25 -12 13 -18 30
-15 37 2 8 1 12 -4 9 -4 -3 -21 20 -36 51 -16 31 -38 65 -49 76 -12 11 -15 17
-8 13 18 -11 15 -2 -13 30 -14 16 -25 34 -25 40 0 7 -7 15 -16 18 -9 4 -14 9
-11 12 3 4 -3 15 -14 27 -10 11 -19 27 -19 34 0 8 -4 11 -10 8 -5 -3 -10 1
-10 9 0 8 -10 22 -22 31 -13 8 -22 18 -20 20 5 10 2 28 -4 22 -4 -3 -18 11
-32 31 -13 20 -33 43 -44 50 -10 7 -16 18 -13 23 4 5 -1 9 -9 9 -9 0 -16 9
-16 21 0 11 -4 17 -10 14 -5 -3 -10 1 -10 9 0 9 -3 15 -7 15 -23 -4 -32 3 -26
18 4 10 2 14 -5 9 -6 -3 -13 3 -17 15 -4 11 -9 18 -13 15 -7 -7 -38 36 -34 47
1 5 -2 5 -8 2 -6 -4 -25 8 -41 26 -17 19 -36 34 -42 34 -7 0 -11 9 -9 19 2 11
-1 15 -7 11 -6 -3 -14 1 -17 9 -3 9 -11 16 -16 16 -6 0 -23 14 -38 30 -15 17
-31 30 -35 30 -13 0 -34 28 -27 35 4 5 2 5 -5 1 -6 -3 -14 -2 -18 4 -4 6 -11
7 -17 4 -6 -4 -8 -2 -5 3 4 6 -1 17 -10 24 -12 10 -14 10 -9 2 4 -7 2 -13 -3
-13 -6 0 -11 7 -11 16 0 10 -6 14 -14 11 -10 -4 -13 -1 -10 8 3 8 -4 16 -18
21 -13 4 -30 14 -38 23 -8 9 -22 17 -30 19 -8 2 -19 8 -25 14 -7 8 -6 8 4 3
10 -5 12 -4 7 4 -4 6 -11 9 -16 6 -4 -3 -13 2 -20 11 -7 8 -19 13 -26 10 -7
-3 -16 0 -20 6 -5 7 -2 8 7 3 12 -8 12 -6 0 8 -7 9 -18 14 -24 10 -5 -3 -16 2
-23 11 -6 9 -21 18 -32 19 -11 0 -18 5 -16 9 5 7 -3 10 -22 7 -4 0 -10 5 -15
13 -5 7 -12 14 -16 14 -25 5 -52 17 -49 23 3 4 -5 8 -17 8 -11 1 -24 9 -29 17
-5 8 -15 13 -23 10 -8 -4 -15 -1 -15 6 0 7 -7 10 -15 7 -8 -4 -17 -1 -21 5 -5
7 -2 8 6 3 9 -5 11 -4 6 4 -4 6 -12 9 -17 5 -5 -3 -21 2 -35 11 -13 9 -29 13
-34 10 -6 -3 -10 -1 -10 5 0 7 -7 9 -16 6 -8 -3 -12 -2 -9 4 3 6 -5 10 -19 10
-14 0 -26 5 -26 10 0 6 -8 10 -18 10 -10 0 -34 8 -55 19 -20 10 -34 14 -30 7
3 -6 0 -6 -8 2 -7 6 -21 12 -31 12 -10 0 -18 4 -18 8 0 4 -8 8 -17 9 -42 3
-63 8 -63 14 0 4 -7 10 -16 13 -10 4 -13 2 -8 -7 5 -9 4 -9 -6 0 -7 6 -19 9
-28 6 -8 -4 -13 -2 -10 3 4 5 -8 10 -25 11 -18 2 -33 7 -35 13 -3 7 -8 7 -18
-1 -11 -9 -14 -9 -14 1 0 7 -7 10 -15 7 -8 -4 -17 -2 -20 3 -3 5 -16 9 -28 9
-26 -1 -62 7 -79 17 -7 5 -8 3 -3 -5 6 -10 3 -11 -14 -2 -12 7 -26 9 -31 6 -6
-3 -10 0 -10 7 0 9 -3 9 -10 -2 -5 -8 -10 -10 -10 -5 0 6 -10 12 -22 13 -81 7
-110 11 -115 16 -4 3 -12 1 -20 -5 -9 -8 -13 -8 -13 -1 0 13 -456 14 -482 1
-10 -6 -18 -5 -20 2 -2 6 -7 7 -12 2z m34 -1106 c0 9 44 12 175 12 113 -1 173
-5 169 -11 -4 -6 2 -5 14 1 12 6 23 7 26 3 2 -4 24 -9 47 -11 23 -1 45 -4 48
-6 7 -4 88 -17 109 -18 6 0 12 -4 12 -9 0 -5 5 -6 10 -3 6 3 10 0 10 -7 0 -9
3 -9 10 2 6 9 10 11 10 3 0 -7 7 -10 17 -6 11 5 14 3 8 -6 -5 -10 -2 -11 14
-6 12 4 28 2 36 -5 8 -6 19 -9 25 -5 5 3 13 0 16 -9 3 -8 12 -12 20 -9 8 3 14
0 14 -7 0 -6 4 -9 9 -6 5 3 21 -1 37 -9 15 -7 32 -11 37 -8 6 4 7 1 2 -7 -6
-10 -3 -12 14 -7 13 3 20 3 17 -1 -6 -5 62 -41 81 -43 19 -2 43 -21 38 -29 -3
-6 1 -7 10 -3 10 3 20 2 24 -3 13 -18 54 -49 46 -34 -8 13 -7 13 11 0 10 -8
23 -21 27 -27 4 -7 17 -13 28 -13 11 0 17 -4 14 -10 -3 -5 0 -10 8 -10 7 0 23
-9 35 -20 12 -11 26 -20 31 -20 6 0 14 -6 18 -14 4 -7 18 -18 31 -25 12 -7 20
-17 16 -23 -4 -7 -3 -8 4 -4 7 4 12 2 12 -3 0 -6 6 -11 14 -11 8 0 17 -7 20
-16 3 -8 11 -12 16 -9 6 4 9 2 8 -2 -2 -5 25 -37 60 -70 34 -34 62 -66 62 -72
0 -6 7 -11 15 -11 8 0 15 -4 15 -8 0 -9 19 -35 62 -84 15 -17 25 -35 22 -39
-3 -5 2 -9 10 -9 8 0 18 -5 22 -12 5 -7 3 -8 -5 -3 -10 5 -9 2 0 -13 7 -12 17
-18 23 -15 5 4 7 -1 3 -10 -3 -10 -2 -17 3 -17 6 0 10 -7 10 -16 0 -8 5 -12
10 -9 6 3 10 -3 10 -14 0 -12 4 -21 9 -21 10 0 37 -60 33 -73 -1 -5 2 -6 7 -2
6 3 15 -13 22 -35 7 -22 16 -40 21 -40 4 0 8 -9 8 -21 0 -11 4 -18 9 -15 5 3
9 0 8 -7 -1 -31 4 -48 12 -42 6 3 8 -4 6 -15 -2 -11 1 -20 6 -20 6 0 7 -4 4
-10 -3 -5 -1 -10 6 -10 7 0 9 -3 6 -7 -4 -3 -1 -13 6 -21 10 -13 9 -15 -3 -8
-8 4 -6 0 4 -8 12 -9 14 -16 7 -16 -9 0 -8 -4 3 -15 8 -9 13 -22 10 -30 -4 -8
-1 -15 4 -15 6 0 9 -9 7 -20 -2 -11 0 -20 5 -20 4 0 7 -13 6 -29 -1 -17 2 -27
8 -24 5 4 7 0 3 -9 -3 -9 -2 -19 3 -24 12 -13 16 -57 6 -73 -6 -10 -5 -12 2
-7 8 5 12 -4 12 -28 0 -19 3 -37 8 -39 4 -3 7 -37 7 -76 0 -39 3 -71 7 -71 4
0 3 -13 -2 -30 -5 -19 -5 -30 1 -30 6 0 5 -9 -2 -21 -8 -15 -8 -19 0 -15 6 4
11 2 11 -3 0 -6 -6 -11 -12 -11 -9 0 -8 -4 2 -10 11 -7 11 -10 2 -10 -10 0
-10 -5 -2 -20 8 -15 8 -20 -2 -20 -9 0 -9 -3 2 -10 8 -5 10 -10 5 -10 -6 0
-10 -24 -10 -55 1 -30 -2 -55 -5 -55 -3 0 -6 -17 -8 -37 -2 -35 -8 -78 -12
-78 -1 0 -9 -52 -12 -82 -1 -7 -4 -13 -8 -13 -4 0 -7 -8 -7 -17 1 -10 -5 -38
-12 -63 -8 -25 -14 -51 -14 -57 0 -7 -5 -13 -10 -13 -6 0 -7 -3 -4 -7 4 -3 2
-12 -4 -20 -6 -7 -8 -13 -4 -13 4 0 2 -7 -5 -15 -7 -9 -10 -18 -7 -21 3 -4 -1
-13 -9 -21 -8 -8 -12 -19 -9 -24 4 -5 1 -9 -4 -9 -6 0 -10 -3 -9 -7 2 -12 -33
-87 -44 -94 -5 -3 -9 -9 -9 -13 3 -20 0 -26 -11 -20 -6 4 -8 3 -4 -4 9 -15
-70 -143 -159 -258 -70 -91 -246 -256 -335 -314 -12 -8 -33 -23 -45 -32 -13
-10 -27 -18 -31 -18 -4 0 -15 -6 -23 -14 -17 -15 -216 -117 -235 -120 -6 -1
-20 -7 -31 -13 -23 -12 -76 -27 -87 -25 -5 1 -8 -3 -8 -9 0 -6 -9 -9 -20 -6
-13 3 -18 1 -13 -6 4 -6 0 -8 -10 -4 -10 3 -17 2 -17 -2 0 -5 -13 -8 -29 -7
-17 1 -27 -2 -24 -8 4 -5 -1 -7 -10 -3 -10 3 -17 2 -17 -3 0 -5 -9 -7 -20 -5
-11 2 -22 0 -25 -5 -3 -5 -14 -7 -25 -5 -11 2 -22 0 -25 -5 -3 -4 -20 -8 -37
-8 -36 0 -97 -10 -109 -18 -4 -2 -10 0 -14 6 -4 6 -12 7 -18 3 -18 -11 -33
-12 -127 -12 -153 0 -200 3 -200 12 0 5 -7 4 -15 -3 -8 -7 -15 -8 -15 -3 0 5
-6 10 -12 10 -68 3 -108 8 -108 13 0 3 -10 6 -22 6 -45 1 -73 9 -86 24 -8 8
-11 9 -7 3 7 -15 -11 -18 -20 -3 -3 5 -13 6 -22 3 -12 -5 -14 -3 -8 6 5 10 2
11 -14 6 -15 -5 -29 -1 -43 12 -14 12 -19 13 -13 3 6 -10 2 -10 -12 3 -11 10
-24 17 -29 15 -5 -1 -20 4 -33 11 -14 8 -21 9 -17 2 4 -6 2 -11 -3 -11 -6 0
-11 4 -11 10 0 5 -10 14 -21 21 -15 8 -19 8 -15 0 4 -6 -9 -2 -28 10 -20 12
-36 17 -36 12 0 -4 -5 -1 -10 7 -5 8 -13 15 -17 16 -18 2 -49 19 -61 33 -8 9
-11 10 -7 4 9 -18 2 -16 -25 7 -13 11 -29 20 -37 20 -8 0 -11 5 -7 12 5 7 0 9
-14 6 -15 -4 -23 0 -27 13 -4 11 -10 17 -15 14 -4 -3 -13 2 -20 10 -7 8 -19
15 -27 15 -8 0 -11 5 -8 10 3 6 0 10 -8 10 -8 0 -25 9 -38 20 -79 66 -106 89
-145 127 -23 23 -45 39 -48 35 -3 -3 -6 3 -6 13 0 10 -3 16 -6 12 -6 -6 -34
16 -34 27 0 3 -8 14 -17 24 -48 49 -83 92 -83 101 0 5 -7 11 -15 15 -8 3 -15
12 -15 19 0 8 -10 22 -22 31 -13 9 -16 14 -8 9 8 -4 -2 13 -22 37 -21 24 -38
49 -38 56 0 6 -7 17 -15 24 -8 7 -12 16 -9 21 3 5 1 9 -4 9 -4 0 -14 16 -22
35 -7 19 -17 32 -22 29 -4 -3 -5 1 -2 9 3 8 -2 22 -11 31 -9 9 -13 16 -9 16 3
0 1 6 -5 13 -6 8 -8 17 -4 20 3 4 1 7 -5 7 -7 0 -12 9 -12 20 0 11 -4 20 -10
20 -5 0 -10 11 -10 25 0 14 -4 25 -8 25 -8 0 -12 14 -13 53 0 9 -4 15 -8 12
-5 -2 -11 4 -14 15 -3 13 -1 18 6 13 7 -3 4 2 -5 13 -14 16 -15 23 -5 34 7 8
8 11 1 7 -14 -8 -22 9 -19 41 1 12 -2 22 -7 22 -5 0 -6 5 -3 10 3 6 3 10 -2
10 -4 0 -9 10 -9 23 -1 12 -4 38 -8 57 -4 19 -8 44 -9 55 -1 11 -6 23 -12 27
-6 5 -5 8 3 8 8 0 10 5 6 12 -8 13 -11 37 -15 138 -1 30 -7 61 -13 69 -8 11
-8 13 1 8 8 -5 12 16 13 75 2 128 5 172 12 184 4 5 5 22 4 37 -2 15 1 27 6 27
6 0 8 7 4 15 -3 8 -2 15 2 15 6 0 9 19 12 72 1 10 5 20 10 23 5 3 7 12 3 20
-3 8 -1 15 5 15 6 0 9 8 7 18 -1 9 5 26 14 36 9 11 10 16 4 12 -7 -4 -13 -2
-13 3 0 6 5 11 11 11 5 0 8 4 4 9 -3 5 -1 12 5 16 6 4 8 11 5 16 -4 5 -1 9 5
9 6 0 9 4 6 9 -3 5 1 21 9 37 7 15 12 31 9 36 -3 4 -1 8 4 8 5 0 13 10 17 23
4 12 8 24 10 27 27 62 49 106 54 110 4 3 18 26 31 53 14 26 28 47 32 47 5 0 8
6 8 13 0 19 123 174 203 256 76 78 187 171 253 211 21 13 45 30 52 37 13 12
28 17 45 14 5 -1 6 3 2 9 -5 9 1 12 21 9 4 0 10 4 13 9 6 10 196 102 211 102
4 0 25 8 46 17 22 9 45 16 52 14 6 -1 12 4 12 11 0 9 3 9 10 -2 6 -10 10 -11
10 -2 0 6 11 12 25 12 14 0 25 4 25 9 0 5 11 8 25 6 14 -1 25 2 25 7 0 5 8 8
18 6 9 -1 22 1 28 4 6 4 33 10 60 13 83 9 117 14 122 20 3 3 9 0 14 -7 6 -10
8 -10 8 -1z"/>
</g>
</svg>
